<svg width="384" height="384" xmlns="http://www.w3.org/2000/svg" xmlns:xlink="http://www.w3.org/1999/xlink" overflow="hidden"><defs><clipPath id="clip0"><path d="M0 0 384 0 384 384 0 384Z" fill-rule="evenodd" clip-rule="evenodd"/></clipPath></defs><g clip-path="url(#clip0)"><rect x="0" y="0" width="384" height="384" fill="#1A1918"/><path d="M0 0 136.703 75.9328" stroke="#7AB547" stroke-width="3" stroke-miterlimit="8" fill="#7AB547" fill-rule="evenodd" transform="matrix(-1 -8.74228e-08 -8.74228e-08 1 297.203 133.5)"/><path d="M0 0 127.88 74.2261" stroke="#7AB547" stroke-width="3" stroke-miterlimit="8" fill="#7AB547" fill-rule="evenodd" transform="matrix(-1 -8.74228e-08 -8.74228e-08 1 266.38 120.5)"/><path d="M0 0 130.622 78.1951" stroke="#7AB547" stroke-width="3" stroke-miterlimit="8" fill="#7AB547" fill-rule="evenodd" transform="matrix(-1 -8.74228e-08 -8.74228e-08 1 260.122 86.5001)"/><path d="M129.5 164.5 130.961 179.015" stroke="#7AB547" stroke-width="3" stroke-miterlimit="8" fill="#7AB547" fill-rule="evenodd"/><path d="M139.5 194.5 160.799 210.616" stroke="#7AB547" stroke-width="3" stroke-miterlimit="8" fill="#7AB547" fill-rule="evenodd"/><path d="M104.5 197.5 106.941 210.111" stroke="#7AB547" stroke-width="3" stroke-miterlimit="8" fill="#7AB547" fill-rule="evenodd"/><path d="M0 0 77.7866 19.5144" stroke="#7AB547" stroke-width="3" stroke-miterlimit="8" fill="#7AB547" fill-rule="evenodd" transform="matrix(1 0 0 -1 84.5001 229.014)"/><path d="M0 0 45.6073 63.6821" stroke="#7AB547" stroke-width="3" stroke-miterlimit="8" fill="#7AB547" fill-rule="evenodd" transform="matrix(1 0 0 -1 84.5001 226.182)"/><path d="M106.5 210.5 116.81 219.613" stroke="#7AB547" stroke-width="3" stroke-miterlimit="8" fill="#7AB547" fill-rule="evenodd"/><path d="M132.5 180.5 138.812 193.815" stroke="#7AB547" stroke-width="3" stroke-miterlimit="8" fill="#7AB547" fill-rule="evenodd"/><path d="M0 0 133.36 75.3849" stroke="#7AB547" stroke-width="3" stroke-miterlimit="8" fill="#7AB547" fill-rule="evenodd" transform="matrix(-1 -8.74228e-08 -8.74228e-08 1 263.86 102.5)"/><text fill="#FFFFFF" font-family="Berlin Sans FB,Berlin Sans FB_MSFontService,sans-serif" font-weight="600" font-size="48" transform="translate(79.301 271)">I<tspan font-size="37" x="14.3333" y="0">MAGINAIRE</tspan></text><path d="M99.5001 198.5C99.5001 195.739 101.515 193.5 104 193.5 106.485 193.5 108.5 195.739 108.5 198.5 108.5 201.261 106.485 203.5 104 203.5 101.515 203.5 99.5001 201.261 99.5001 198.5Z" stroke="#FFFFFF" stroke-width="0.666667" stroke-miterlimit="8" fill="#7AB547" fill-rule="evenodd"/><path d="M82.5001 226C82.5001 223.515 84.5148 221.5 87.0001 221.5 89.4853 221.5 91.5001 223.515 91.5001 226 91.5001 228.485 89.4853 230.5 87.0001 230.5 84.5148 230.5 82.5001 228.485 82.5001 226Z" stroke="#FFFFFF" stroke-width="0.666667" stroke-miterlimit="8" fill="#7AB547" fill-rule="evenodd"/><path d="M103.5 210.5C103.5 207.739 105.739 205.5 108.5 205.5 111.261 205.5 113.5 207.739 113.5 210.5 113.5 213.261 111.261 215.5 108.5 215.5 105.739 215.5 103.5 213.261 103.5 210.5Z" stroke="#FFFFFF" stroke-width="0.666667" stroke-miterlimit="8" fill="#7AB547" fill-rule="evenodd"/><path d="M124.5 164.5C124.5 161.739 126.739 159.5 129.5 159.5 132.261 159.5 134.5 161.739 134.5 164.5 134.5 167.261 132.261 169.5 129.5 169.5 126.739 169.5 124.5 167.261 124.5 164.5Z" stroke="#FFFFFF" stroke-width="0.666667" stroke-miterlimit="8" fill="#7AB547" fill-rule="evenodd"/><path d="M126.5 177.5C126.5 174.739 128.739 172.5 131.5 172.5 134.261 172.5 136.5 174.739 136.5 177.5 136.5 180.261 134.261 182.5 131.5 182.5 128.739 182.5 126.5 180.261 126.5 177.5Z" stroke="#FFFFFF" stroke-width="0.666667" stroke-miterlimit="8" fill="#7AB547" fill-rule="evenodd"/><path d="M134.5 194C134.5 191.515 136.739 189.5 139.5 189.5 142.261 189.5 144.5 191.515 144.5 194 144.5 196.485 142.261 198.5 139.5 198.5 136.739 198.5 134.5 196.485 134.5 194Z" stroke="#FFFFFF" stroke-width="0.666667" stroke-miterlimit="8" fill="#7AB547" fill-rule="evenodd"/><path d="M113.5 220.5C113.5 217.739 115.739 215.5 118.5 215.5 121.261 215.5 123.5 217.739 123.5 220.5 123.5 223.261 121.261 225.5 118.5 225.5 115.739 225.5 113.5 223.261 113.5 220.5Z" stroke="#FFFFFF" stroke-width="0.666667" stroke-miterlimit="8" fill="#7AB547" fill-rule="evenodd"/><path d="M156.5 209C156.5 206.515 158.739 204.5 161.5 204.5 164.261 204.5 166.5 206.515 166.5 209 166.5 211.485 164.261 213.5 161.5 213.5 158.739 213.5 156.5 211.485 156.5 209Z" stroke="#FFFFFF" stroke-width="0.666667" stroke-miterlimit="8" fill="#7AB547" fill-rule="evenodd"/><path d="M255.5 86.0001C255.5 83.5148 257.739 81.5001 260.5 81.5001 263.261 81.5001 265.5 83.5148 265.5 86.0001 265.5 88.4853 263.261 90.5001 260.5 90.5001 257.739 90.5001 255.5 88.4853 255.5 86.0001Z" stroke="#FFFFFF" stroke-width="0.666667" stroke-miterlimit="8" fill="#7AB547" fill-rule="evenodd"/><path d="M257.5 104C257.5 101.515 259.739 99.5001 262.5 99.5001 265.261 99.5001 267.5 101.515 267.5 104 267.5 106.485 265.261 108.5 262.5 108.5 259.739 108.5 257.5 106.485 257.5 104Z" stroke="#FFFFFF" stroke-width="0.666667" stroke-miterlimit="8" fill="#7AB547" fill-rule="evenodd"/><path d="M261.5 121.5C261.5 118.739 263.515 116.5 266 116.5 268.485 116.5 270.5 118.739 270.5 121.5 270.5 124.261 268.485 126.5 266 126.5 263.515 126.5 261.5 124.261 261.5 121.5Z" stroke="#FFFFFF" stroke-width="0.666667" stroke-miterlimit="8" fill="#7AB547" fill-rule="evenodd"/><path d="M294.5 133.5C294.5 130.739 296.515 128.5 299 128.5 301.485 128.5 303.5 130.739 303.5 133.5 303.5 136.261 301.485 138.5 299 138.5 296.515 138.5 294.5 136.261 294.5 133.5Z" stroke="#FFFFFF" stroke-width="0.666667" stroke-miterlimit="8" fill="#7AB547" fill-rule="evenodd"/></g></svg>